name C:/MyDriveSym/Projects/mobilecap/Data\Session20210816_0002\mocap\ForceDataProcessed\walkingTS3_forces.mot
datacolumns 19
datarows 29
range 0.42450000 0.43850000
endheader 
time	R_ground_force_vx	R_ground_force_vy	R_ground_force_vz	R_ground_force_px	R_ground_force_py	R_ground_force_pz	R_ground_torque_x	R_ground_torque_y	R_ground_torque_z	L_ground_force_vx	L_ground_force_vy	L_ground_force_vz	L_ground_force_px	L_ground_force_py	L_ground_force_pz	L_ground_torque_x	L_ground_torque_y	L_ground_torque_z	
          0.42450000	         -3.93399200	        578.32244500	         -9.24908000	          0.25931800	          0.00600000	         -0.18822600	          0.00000000	         -3.17904200	          0.00000000	          0.00000000	          0.00000000	          0.00000000	          0.71707600	          0.00000000	         -0.27588500	          0.00000000	          0.00000000	          0.00000000	
          0.42500000	         -3.84851500	        578.09851500	         -9.26627200	          0.25945200	          0.00600000	         -0.18818600	          0.00000000	         -3.18810800	          0.00000000	          0.00000000	          0.00000000	          0.00000000	          0.71707600	          0.00000000	         -0.27588500	          0.00000000	          0.00000000	          0.00000000	
          0.42550000	         -3.76285700	        577.87782600	         -9.28350700	          0.25958600	          0.00600000	         -0.18814600	          0.00000000	         -3.19720200	          0.00000000	          0.00000000	          0.00000000	          0.00000000	          0.71707600	          0.00000000	         -0.27588500	          0.00000000	          0.00000000	          0.00000000	
          0.42600000	         -3.67701200	        577.66039100	         -9.30078500	          0.25972100	          0.00600000	         -0.18810600	          0.00000000	         -3.20632400	          0.00000000	          0.00000000	          0.00000000	          0.00000000	          0.71707600	          0.00000000	         -0.27588500	          0.00000000	          0.00000000	          0.00000000	
          0.42650000	         -3.59097700	        577.44622900	         -9.31811100	          0.25985500	          0.00600000	         -0.18806600	          0.00000000	         -3.21547300	          0.00000000	          0.00000000	          0.00000000	          0.00000000	          0.71707600	          0.00000000	         -0.27588500	          0.00000000	          0.00000000	          0.00000000	
          0.42700000	         -3.50474800	        577.23535400	         -9.33548700	          0.25998800	          0.00600000	         -0.18802500	          0.00000000	         -3.22464800	          0.00000000	          0.00000000	          0.00000000	          0.00000000	          0.71707600	          0.00000000	         -0.27588500	          0.00000000	          0.00000000	          0.00000000	
          0.42750000	         -3.41831900	        577.02778200	         -9.35291700	          0.26012200	          0.00600000	         -0.18798500	          0.00000000	         -3.23385000	          0.00000000	          0.00000000	          0.00000000	          0.00000000	          0.71707600	          0.00000000	         -0.27588500	          0.00000000	          0.00000000	          0.00000000	
          0.42800000	         -3.33168800	        576.82352900	         -9.37040200	          0.26025600	          0.00600000	         -0.18794500	          0.00000000	         -3.24307800	          0.00000000	          0.00000000	          0.00000000	          0.00000000	          0.71707600	          0.00000000	         -0.27588500	          0.00000000	          0.00000000	          0.00000000	
          0.42850000	         -3.24485000	        576.62260900	         -9.38794600	          0.26039000	          0.00600000	         -0.18790400	          0.00000000	         -3.25233100	          0.00000000	          0.00000000	          0.00000000	          0.00000000	          0.71707600	          0.00000000	         -0.27588500	          0.00000000	          0.00000000	          0.00000000	
          0.42900000	         -3.15780000	        576.42503700	         -9.40555100	          0.26052300	          0.00600000	         -0.18786300	          0.00000000	         -3.26160900	          0.00000000	          0.00000000	          0.00000000	          0.00000000	          0.71707600	          0.00000000	         -0.27588500	          0.00000000	          0.00000000	          0.00000000	
          0.42950000	         -3.07053500	        576.23082800	         -9.42322100	          0.26065700	          0.00600000	         -0.18782300	          0.00000000	         -3.27091100	          0.00000000	          0.00000000	          0.00000000	          0.00000000	          0.71707600	          0.00000000	         -0.27588500	          0.00000000	          0.00000000	          0.00000000	
          0.43000000	         -2.98305000	        576.03999600	         -9.44095800	          0.26079000	          0.00600000	         -0.18778200	          0.00000000	         -3.28023800	          0.00000000	          0.00000000	          0.00000000	          0.00000000	          0.71707600	          0.00000000	         -0.27588500	          0.00000000	          0.00000000	          0.00000000	
          0.43050000	         -2.89534100	        575.85255400	         -9.45876600	          0.26092300	          0.00600000	         -0.18774100	          0.00000000	         -3.28958800	          0.00000000	          0.00000000	          0.00000000	          0.00000000	          0.71707600	          0.00000000	         -0.27588500	          0.00000000	          0.00000000	          0.00000000	
          0.43100000	         -2.80740500	        575.66851700	         -9.47664700	          0.26105600	          0.00600000	         -0.18770000	          0.00000000	         -3.29896000	          0.00000000	          0.00000000	          0.00000000	          0.00000000	          0.71707600	          0.00000000	         -0.27588500	          0.00000000	          0.00000000	          0.00000000	
          0.43150000	         -2.71923700	        575.48789800	         -9.49460400	          0.26118900	          0.00600000	         -0.18765900	          0.00000000	         -3.30835600	          0.00000000	          0.00000000	          0.00000000	          0.00000000	          0.71707600	          0.00000000	         -0.27588500	          0.00000000	          0.00000000	          0.00000000	
          0.43200000	         -2.63083200	        575.31071000	         -9.51263900	          0.26132200	          0.00600000	         -0.18761700	          0.00000000	         -3.31777300	          0.00000000	          0.00000000	          0.00000000	          0.00000000	          0.71707600	          0.00000000	         -0.27588500	          0.00000000	          0.00000000	          0.00000000	
          0.43250000	         -2.54218700	        575.13696600	         -9.53075600	          0.26145500	          0.00600000	         -0.18757600	          0.00000000	         -3.32721200	          0.00000000	          0.00000000	          0.00000000	          0.00000000	          0.71707600	          0.00000000	         -0.27588500	          0.00000000	          0.00000000	          0.00000000	
          0.43300000	         -2.45329800	        574.96667800	         -9.54895800	          0.26158800	          0.00600000	         -0.18753500	          0.00000000	         -3.33667200	          0.00000000	          0.00000000	          0.00000000	          0.00000000	          0.71707600	          0.00000000	         -0.27588500	          0.00000000	          0.00000000	          0.00000000	
          0.43350000	         -2.36416100	        574.79985800	         -9.56724700	          0.26172100	          0.00600000	         -0.18749300	          0.00000000	         -3.34615200	          0.00000000	          0.00000000	          0.00000000	          0.00000000	          0.71707600	          0.00000000	         -0.27588500	          0.00000000	          0.00000000	          0.00000000	
          0.43400000	         -2.27477100	        574.63652000	         -9.58562700	          0.26185300	          0.00600000	         -0.18745200	          0.00000000	         -3.35565300	          0.00000000	          0.00000000	          0.00000000	          0.00000000	          0.71707600	          0.00000000	         -0.27588500	          0.00000000	          0.00000000	          0.00000000	
          0.43450000	         -2.18512400	        574.47667300	         -9.60409900	          0.26198600	          0.00600000	         -0.18741000	          0.00000000	         -3.36517300	          0.00000000	          0.00000000	          0.00000000	          0.00000000	          0.71707600	          0.00000000	         -0.27588500	          0.00000000	          0.00000000	          0.00000000	
          0.43500000	         -2.09521700	        574.32033000	         -9.62266800	          0.26211800	          0.00600000	         -0.18736800	          0.00000000	         -3.37471200	          0.00000000	          0.00000000	          0.00000000	          0.00000000	          0.71707600	          0.00000000	         -0.27588500	          0.00000000	          0.00000000	          0.00000000	
          0.43550000	         -2.00504500	        574.16750200	         -9.64133500	          0.26225000	          0.00600000	         -0.18732700	          0.00000000	         -3.38426900	          0.00000000	          0.00000000	          0.00000000	          0.00000000	          0.71707600	          0.00000000	         -0.27588500	          0.00000000	          0.00000000	          0.00000000	
          0.43600000	         -1.91460500	        574.01820000	         -9.66010300	          0.26238200	          0.00600000	         -0.18728500	          0.00000000	         -3.39384400	          0.00000000	          0.00000000	          0.00000000	          0.00000000	          0.71707600	          0.00000000	         -0.27588500	          0.00000000	          0.00000000	          0.00000000	
          0.43650000	         -1.82389200	        573.87243400	         -9.67897600	          0.26251400	          0.00600000	         -0.18724300	          0.00000000	         -3.40343700	          0.00000000	          0.00000000	          0.00000000	          0.00000000	          0.71707600	          0.00000000	         -0.27588500	          0.00000000	          0.00000000	          0.00000000	
          0.43700000	         -1.73290200	        573.73021400	         -9.69795500	          0.26264600	          0.00600000	         -0.18720100	          0.00000000	         -3.41304700	          0.00000000	          0.00000000	          0.00000000	          0.00000000	          0.71707600	          0.00000000	         -0.27588500	          0.00000000	          0.00000000	          0.00000000	
          0.43750000	         -1.64163100	        573.59155100	         -9.71704500	          0.26277800	          0.00600000	         -0.18715900	          0.00000000	         -3.42267300	          0.00000000	          0.00000000	          0.00000000	          0.00000000	          0.71707600	          0.00000000	         -0.27588500	          0.00000000	          0.00000000	          0.00000000	
          0.43800000	         -1.55007500	        573.45645400	         -9.73624700	          0.26291000	          0.00600000	         -0.18711600	          0.00000000	         -3.43231500	          0.00000000	          0.00000000	          0.00000000	          0.00000000	          0.71707600	          0.00000000	         -0.27588500	          0.00000000	          0.00000000	          0.00000000	
          0.43850000	         -1.45823000	        573.32493300	         -9.75556400	          0.26304100	          0.00600000	         -0.18707400	          0.00000000	         -3.44197300	          0.00000000	          0.00000000	          0.00000000	          0.00000000	          0.71707600	          0.00000000	         -0.27588500	          0.00000000	          0.00000000	          0.00000000	
